<?xml version="1.0" encoding="us-ascii" standalone="no"?><svg xmlns="http://www.w3.org/2000/svg" xmlns:xlink="http://www.w3.org/1999/xlink" contentStyleType="text/css" height="404px" preserveAspectRatio="none" style="width:2981px;height:404px;background:#FFFFFF;" version="1.1" viewBox="0 0 2981 404" width="2981px" zoomAndPan="magnify"><defs/><g><!--cluster SmartFarmingDashboard--><g id="cluster_SmartFarmingDashboard"><rect fill="none" height="270" rx="2.5" ry="2.5" style="stroke:#181818;stroke-width:1.0;" width="2968" x="7" y="128.5"/><text fill="#000000" font-family="sans-serif" font-size="14" font-weight="bold" lengthAdjust="spacing" textLength="203" x="1389.5" y="143.4951">SmartFarmingDashboard</text></g><g id="elem_weather"><ellipse cx="752.0909" cy="192.6182" fill="#F1F1F1" rx="123.5909" ry="27.1182" style="stroke:#181818;stroke-width:0.5;"/><text fill="#000000" font-family="sans-serif" font-size="14" lengthAdjust="spacing" textLength="215" x="644.5909" y="195.4649">View Real-Time Weather Data</text></g><g id="elem_wi1"><ellipse cx="140.9942" cy="340.3988" fill="#F1F1F1" rx="117.4942" ry="25.8988" style="stroke:#181818;stroke-width:0.5;"/><text fill="#000000" font-family="sans-serif" font-size="14" lengthAdjust="spacing" textLength="202" x="39.9942" y="343.2455">View real-time temperature</text></g><g id="elem_wi2"><ellipse cx="420.8908" cy="340.2782" fill="#F1F1F1" rx="126.8908" ry="27.7782" style="stroke:#181818;stroke-width:0.5;"/><text fill="#000000" font-family="sans-serif" font-size="14" lengthAdjust="spacing" textLength="222" x="309.8908" y="343.1248">View precipitation information</text></g><g id="elem_wi3"><ellipse cx="703.8027" cy="340.4605" fill="#F1F1F1" rx="120.3027" ry="26.4605" style="stroke:#181818;stroke-width:0.5;"/><text fill="#000000" font-family="sans-serif" font-size="14" lengthAdjust="spacing" textLength="208" x="599.8027" y="343.3072">View wind speed information</text></g><g id="elem_wi4"><ellipse cx="971.9079" cy="340.2816" fill="#F1F1F1" rx="111.9079" ry="24.7816" style="stroke:#181818;stroke-width:0.5;"/><text fill="#000000" font-family="sans-serif" font-size="14" lengthAdjust="spacing" textLength="190" x="876.9079" y="343.1283">View humidity information</text></g><g id="elem_we1"><ellipse cx="1309.9686" cy="340.5937" fill="#F1F1F1" rx="190.9686" ry="40.5937" style="stroke:#181818;stroke-width:0.5;"/><text fill="#000000" font-family="sans-serif" font-size="14" lengthAdjust="spacing" textLength="355" x="1132.4686" y="343.4404">Set weather-related alerts for specific conditions</text></g><g id="elem_soil"><ellipse cx="1116.1635" cy="192.6327" fill="#F1F1F1" rx="86.1635" ry="19.6327" style="stroke:#181818;stroke-width:0.5;"/><text fill="#000000" font-family="sans-serif" font-size="14" lengthAdjust="spacing" textLength="133" x="1049.6635" y="195.4794">Access Soil Quality</text></g><g id="elem_si1"><ellipse cx="2097.2013" cy="340.4403" fill="#F1F1F1" rx="130.2013" ry="28.4403" style="stroke:#181818;stroke-width:0.5;"/><text fill="#000000" font-family="sans-serif" font-size="14" lengthAdjust="spacing" textLength="229" x="1982.7013" y="343.2869">Access information on pH levels</text></g><g id="elem_si2"><ellipse cx="2418.9876" cy="340.2975" fill="#F1F1F1" rx="156.9876" ry="33.7975" style="stroke:#181818;stroke-width:0.5;"/><text fill="#000000" font-family="sans-serif" font-size="14" lengthAdjust="spacing" textLength="285" x="2276.4876" y="343.1442">Access information on nutrient content</text></g><g id="elem_si3"><ellipse cx="1733.808" cy="340.4616" fill="#F1F1F1" rx="197.808" ry="41.9616" style="stroke:#181818;stroke-width:0.5;"/><text fill="#000000" font-family="sans-serif" font-size="14" lengthAdjust="spacing" textLength="369" x="1549.308" y="343.3083">Access information on moisture for soil assessment</text></g><g id="elem_energy"><ellipse cx="1370.0721" cy="192.4144" fill="#F1F1F1" rx="132.5721" ry="28.9144" style="stroke:#181818;stroke-width:0.5;"/><text fill="#000000" font-family="sans-serif" font-size="14" lengthAdjust="spacing" textLength="234" x="1253.0721" y="195.2611">Track Farm Energy Consumption</text></g><g id="elem_historical"><ellipse cx="1634.7599" cy="192.352" fill="#F1F1F1" rx="97.2599" ry="21.852" style="stroke:#181818;stroke-width:0.5;"/><text fill="#000000" font-family="sans-serif" font-size="14" lengthAdjust="spacing" textLength="158" x="1555.7599" y="195.1987">Access Historical Data</text></g><g id="elem_alert"><ellipse cx="1898.1751" cy="192.535" fill="#F1F1F1" rx="130.6751" ry="28.535" style="stroke:#181818;stroke-width:0.5;"/><text fill="#000000" font-family="sans-serif" font-size="14" lengthAdjust="spacing" textLength="230" x="1783.1751" y="195.3817">Reveive Alerts and Notifications</text></g><g id="elem_community"><ellipse cx="2196.0975" cy="192.3195" fill="#F1F1F1" rx="132.0975" ry="28.8195" style="stroke:#181818;stroke-width:0.5;"/><text fill="#000000" font-family="sans-serif" font-size="14" lengthAdjust="spacing" textLength="233" x="2079.5975" y="195.1662">Participate in Community Forum</text></g><g id="elem_ci1"><ellipse cx="2675.2248" cy="340.645" fill="#F1F1F1" rx="63.7248" ry="15.145" style="stroke:#181818;stroke-width:0.5;"/><text fill="#000000" font-family="sans-serif" font-size="14" lengthAdjust="spacing" textLength="75" x="2634.7248" y="344.3925">Share files</text></g><g id="elem_ci2"><ellipse cx="2865.8318" cy="340.3664" fill="#F1F1F1" rx="92.3318" ry="20.8664" style="stroke:#181818;stroke-width:0.5;"/><text fill="#000000" font-family="sans-serif" font-size="14" lengthAdjust="spacing" textLength="147" x="2792.3318" y="343.213">Real-time discussion</text></g><g id="elem_iot"><ellipse cx="2458.9604" cy="192.4921" fill="#F1F1F1" rx="95.4604" ry="21.4921" style="stroke:#181818;stroke-width:0.5;"/><text fill="#000000" font-family="sans-serif" font-size="14" lengthAdjust="spacing" textLength="154" x="2381.9604" y="195.3388">Integrate IoT Sensors</text></g><g id="elem_crops"><ellipse cx="2663.0678" cy="192.5136" fill="#F1F1F1" rx="73.0678" ry="17.0136" style="stroke:#181818;stroke-width:0.5;"/><text fill="#000000" font-family="sans-serif" font-size="14" lengthAdjust="spacing" textLength="101" x="2609.5678" y="196.2611">Manage Crops</text></g><g id="elem_land"><ellipse cx="2865.1693" cy="192.6339" fill="#F1F1F1" rx="93.6693" ry="21.1339" style="stroke:#181818;stroke-width:0.5;"/><text fill="#000000" font-family="sans-serif" font-size="14" lengthAdjust="spacing" textLength="150" x="2790.1693" y="195.4805">Get land information</text></g><!--entity farmer--><g id="elem_farmer"><ellipse cx="1898" cy="14" fill="#F1F1F1" rx="8" ry="8" style="stroke:#181818;stroke-width:0.5;"/><path d="M1898,22 L1898,49 M1885,30 L1911,30 M1898,49 L1885,64 M1898,49 L1911,64 " fill="none" style="stroke:#181818;stroke-width:0.5;"/><text fill="#000000" font-family="sans-serif" font-size="14" lengthAdjust="spacing" textLength="51" x="1872.5" y="78.4951">Farmer</text></g><!--link farmer to weather--><g id="link_farmer_weather"><path d="M1872.44,45.017 C1766.19,47.517 1349.32,60.815 1013,120.5 C945.957,132.398 876.8609,151.8247 824.5749,167.9707 " fill="none" id="farmer-to-weather" style="stroke:#181818;stroke-width:1.0;"/><polygon fill="#181818" points="818.842,169.741,828.6215,170.9074,823.6194,168.2657,826.2611,163.2636,818.842,169.741" style="stroke:#181818;stroke-width:1.0;"/></g><!--reverse link weather to wi1--><g id="link_weather_wi1"><path d="M656.1364,212.3623 C560.0504,231.7423 409.445,263.574 276,298.5 C252.896,304.547 227.808,311.935 205.6,318.7654 " fill="none" id="weather-backto-wi1" style="stroke:#181818;stroke-width:1.0;"/><polygon fill="#181818" points="662.018,211.176,652.4048,209.0344,657.1167,212.1646,653.9865,216.8765,662.018,211.176" style="stroke:#181818;stroke-width:1.0;"/></g><!--reverse link weather to wi2--><g id="link_weather_wi2"><path d="M693.3293,219.3784 C632.2013,246.3414 537.854,287.957 475.979,315.2496 " fill="none" id="weather-backto-wi2" style="stroke:#181818;stroke-width:1.0;"/><polygon fill="#181818" points="698.819,216.957,688.9702,216.9294,694.2443,218.9749,692.1988,224.249,698.819,216.957" style="stroke:#181818;stroke-width:1.0;"/></g><!--reverse link weather to wi3--><g id="link_weather_wi3"><path d="M741.5451,225.3019 C732.8081,251.8769 721.217,287.131 712.507,313.624 " fill="none" id="weather-backto-wi3" style="stroke:#181818;stroke-width:1.0;"/><polygon fill="#181818" points="743.419,219.602,736.8082,226.9025,741.8574,224.3519,744.408,229.4011,743.419,219.602" style="stroke:#181818;stroke-width:1.0;"/></g><!--reverse link weather to wi4--><g id="link_weather_wi4"><path d="M794.3193,221.5847 C835.7553,249.0827 897.097,289.791 937.402,316.5395 " fill="none" id="weather-backto-wi4" style="stroke:#181818;stroke-width:1.0;"/><polygon fill="#181818" points="789.32,218.267,794.6072,226.5764,793.4861,221.0317,799.0307,219.9106,789.32,218.267" style="stroke:#181818;stroke-width:1.0;"/></g><!--reverse link weather to we1--><g id="link_weather_we1"><path d="M834.8066,215.1658 C928.6836,239.7288 1082.52,279.98 1191.95,308.613 " fill="none" id="weather-backto-we1" style="stroke:#181818;stroke-width:1.0;stroke-dasharray:7.0,7.0;"/><polygon fill="#181818" points="829.002,213.647,836.6964,219.7949,833.8392,214.9126,838.7214,212.0554,829.002,213.647" style="stroke:#181818;stroke-width:1.0;"/><text fill="#000000" font-family="sans-serif" font-size="13" lengthAdjust="spacing" textLength="61" x="1032" y="264.5669">&#171;extend&#187;</text></g><!--link farmer to soil--><g id="link_farmer_soil"><path d="M1872.19,45.727 C1763.55,51.144 1343.4,74.71 1220,120.5 C1187.82,132.441 1160.5789,152.5626 1140.7689,169.3376 " fill="none" id="farmer-to-soil" style="stroke:#181818;stroke-width:1.0;"/><polygon fill="#181818" points="1136.19,173.215,1145.6432,170.4515,1140.0057,169.9839,1140.4734,164.3464,1136.19,173.215" style="stroke:#181818;stroke-width:1.0;"/></g><!--reverse link soil to si1--><g id="link_soil_si1"><path d="M1171.1419,210.1028 C1188.3019,214.8598 1201.98,218.147 1220,221.5 C1540.73,281.205 1629.54,237.352 1950,298.5 C1974.59,303.193 2001.06,310.008 2024.67,316.7389 " fill="none" id="soil-backto-si1" style="stroke:#181818;stroke-width:1.0;"/><polygon fill="#181818" points="1165.36,208.5,1172.9644,214.7589,1170.1783,209.8357,1175.1015,207.0496,1165.36,208.5" style="stroke:#181818;stroke-width:1.0;"/></g><!--reverse link soil to si2--><g id="link_soil_si2"><path d="M1170.5584,210.2785 C1187.8384,215.1095 1201.75,218.387 1220,221.5 C1276.29,231.104 2188.56,289.786 2245,298.5 C2270,302.36 2296.71,307.917 2321.52,313.701 " fill="none" id="soil-backto-si2" style="stroke:#181818;stroke-width:1.0;"/><polygon fill="#181818" points="1164.78,208.663,1172.3706,214.9385,1169.5954,210.0092,1174.5246,207.2339,1164.78,208.663" style="stroke:#181818;stroke-width:1.0;"/></g><!--reverse link soil to si3--><g id="link_soil_si3"><path d="M1174.3323,209.6201 C1190.7823,214.0651 1203.22,217.316 1220,221.5 C1347.93,253.393 1494.57,286.743 1598.39,309.819 " fill="none" id="soil-backto-si3" style="stroke:#181818;stroke-width:1.0;"/><polygon fill="#181818" points="1168.54,208.055,1176.185,214.2642,1173.3669,209.3593,1178.2718,206.5412,1168.54,208.055" style="stroke:#181818;stroke-width:1.0;"/></g><!--link farmer to energy--><g id="link_farmer_energy"><path d="M1872.23,47.479 C1810.29,55.111 1648.66,77.828 1520,120.5 C1484.45,132.291 1451.6469,147.6549 1422.7369,162.6399 " fill="none" id="farmer-to-energy" style="stroke:#181818;stroke-width:1.0;"/><polygon fill="#181818" points="1417.41,165.401,1427.2411,164.8106,1421.8491,163.1001,1423.5596,157.708,1417.41,165.401" style="stroke:#181818;stroke-width:1.0;"/></g><!--link farmer to historical--><g id="link_farmer_historical"><path d="M1872.27,56.944 C1842.49,71.525 1792.14,96.723 1750,120.5 C1720.98,136.874 1693.8299,153.7044 1670.8999,168.3174 " fill="none" id="farmer-to-historical" style="stroke:#181818;stroke-width:1.0;"/><polygon fill="#181818" points="1665.84,171.542,1675.5795,170.0784,1670.0565,168.8549,1671.2801,163.3319,1665.84,171.542" style="stroke:#181818;stroke-width:1.0;"/></g><!--link farmer to alert--><g id="link_farmer_alert"><path d="M1898,81.594 C1898,107.11 1898,134.458 1898,157.699 " fill="none" id="farmer-to-alert" style="stroke:#181818;stroke-width:1.0;"/><polygon fill="#181818" points="1898,163.699,1902,154.699,1898,158.699,1894,154.699,1898,163.699" style="stroke:#181818;stroke-width:1.0;"/></g><!--link farmer to community--><g id="link_farmer_community"><path d="M1923.67,57.16 C1972.44,81.222 2074.019,131.3288 2138.429,163.0988 " fill="none" id="farmer-to-community" style="stroke:#181818;stroke-width:1.0;"/><polygon fill="#181818" points="2143.81,165.753,2137.5079,158.1844,2139.3258,163.5412,2133.969,165.3591,2143.81,165.753" style="stroke:#181818;stroke-width:1.0;"/></g><!--reverse link community to ci1--><g id="link_community_ci1"><path d="M2296.9017,213.933 C2378.6517,231.798 2493.13,260.158 2594,298.5 C2614.33,306.228 2636.28,317.5388 2652.2,326.3235 " fill="none" id="community-backto-ci1" style="stroke:#181818;stroke-width:1.0;stroke-dasharray:7.0,7.0;"/><polygon fill="#181818" points="2291.04,212.652,2298.9785,218.4812,2295.9247,213.7195,2300.6865,210.6657,2291.04,212.652" style="stroke:#181818;stroke-width:1.0;"/><text fill="#000000" font-family="sans-serif" font-size="13" lengthAdjust="spacing" textLength="61" x="2498" y="264.5669">&#171;extend&#187;</text></g><!--reverse link community to ci2--><g id="link_community_ci2"><path d="M2298.6026,213.3655 C2316.3126,216.5955 2328.74,218.724 2346,221.5 C2444.3,237.306 2470.22,232.731 2568,251.5 C2652.58,267.736 2673.74,272.975 2756,298.5 C2778.09,305.355 2802.22,314.191 2822.23,321.9039 " fill="none" id="community-backto-ci2" style="stroke:#181818;stroke-width:1.0;stroke-dasharray:7.0,7.0;"/><polygon fill="#181818" points="2292.7,212.289,2300.8363,217.8389,2297.6189,213.1861,2302.2716,209.9687,2292.7,212.289" style="stroke:#181818;stroke-width:1.0;"/><text fill="#000000" font-family="sans-serif" font-size="13" lengthAdjust="spacing" textLength="61" x="2651" y="264.5669">&#171;extend&#187;</text></g><!--link farmer to iot--><g id="link_farmer_iot"><path d="M1923.68,45.366 C1993.72,48.458 2193.06,62.144 2346,120.5 C2378.47,132.889 2406.8636,151.558 2428.8036,167.857 " fill="none" id="farmer-to-iot" style="stroke:#181818;stroke-width:1.0;"/><polygon fill="#181818" points="2433.62,171.435,2428.7808,162.857,2429.6063,168.4533,2424.0101,169.2789,2433.62,171.435" style="stroke:#181818;stroke-width:1.0;"/></g><!--link farmer to crops--><g id="link_farmer_crops"><path d="M1923.74,45.537 C2032.05,50.183 2450.84,71.062 2572,120.5 C2602.61,132.991 2627.3417,154.6191 2644.0517,171.4421 " fill="none" id="farmer-to-crops" style="stroke:#181818;stroke-width:1.0;"/><polygon fill="#181818" points="2648.28,175.699,2644.7755,166.4948,2644.7564,172.1516,2639.0996,172.1325,2648.28,175.699" style="stroke:#181818;stroke-width:1.0;"/></g><!--link farmer to land--><g id="link_farmer_land"><path d="M1923.52,45.133 C2048.27,48.471 2594.26,66 2754,120.5 C2787.34,131.876 2816.0302,151.5408 2837.3502,168.3678 " fill="none" id="farmer-to-land" style="stroke:#181818;stroke-width:1.0;"/><polygon fill="#181818" points="2842.06,172.085,2837.4735,163.3693,2838.1352,168.9873,2832.5172,169.649,2842.06,172.085" style="stroke:#181818;stroke-width:1.0;"/></g><!--SRC=[XLF9Rjim4BthAmQvAq3id0B3G92boI55QnljUKgDvK6v22GLDoZwxnrINYZRHG539aVpPddl2LLq7fxH6_A00TRvL7bI4Msh2PO6VKplsRQF63O_7Fe6VbS0VI25WU3g6zCM5eIwNh4X-4uODrBj4IDUfPhR8N06yGaI4oIIwSXZx3qD2Buvo-va9kuuOcHdWUtQUPFFEyJa3B5bsq3eY9eBwTEpz4rlkE7uSI7vjanUKjolL7lI6AK-Ql9Hs1CkfQ7YDIjGpaevAH9sBDn0MUPUAGe1beurVErHI-US5oHm8QyO2kJNlO2cTz93xJ3cwpB4zj4psPW6Y_A_Gqx-ZpIEGz9cs2yDZ258dZbM6T6vygX-PbF1aoNVVi23iD2Rxa0fvV25pY_IoNbMg8_-sHnY9M0Xw_CxmVr0FOhMdrrCpEEHzAnBYVeYRcRnaQWcMyfSnlGsYVxiV6yoHkrZ8z4tcFPdJKDXDMPySR1omq7r8UmNLMD-NuNvrgVchsu5IxB1-Q4Wkz6SRsYn9NZmhjirJASouvFOKAUjJ-sQWjMVgXe-PQZh-TwkKEqFixhE7zduFZcvJq_kjyVxzNKsz1tCPlHBtDJCvsN3R98gFnCq-REuJChBjCGDle0oLAXVH0TXYy1HjSCfJob2ZQSyVJtvvn99ah93Lg089AB_0W00]--></g></svg>